<svg width="16" height="17" viewBox="0 0 16 17" fill="none" xmlns="http://www.w3.org/2000/svg">
<path d="M7.33325 3.16665H2.66659C2.31296 3.16665 1.97382 3.30713 1.72378 3.55718C1.47373 3.80723 1.33325 4.14637 1.33325 4.49999V13.8333C1.33325 14.1869 1.47373 14.5261 1.72378 14.7761C1.97382 15.0262 2.31296 15.1667 2.66659 15.1667H11.9999C12.3535 15.1667 12.6927 15.0262 12.9427 14.7761C13.1928 14.5261 13.3333 14.1869 13.3333 13.8333V9.16666M12.3333 2.16665C12.5985 1.90144 12.9582 1.75244 13.3333 1.75244C13.7083 1.75244 14.068 1.90144 14.3333 2.16665C14.5985 2.43187 14.7475 2.79158 14.7475 3.16665C14.7475 3.54173 14.5985 3.90144 14.3333 4.16665L7.99992 10.5L5.33325 11.1667L5.99992 8.49999L12.3333 2.16665Z" stroke="#1E1E1E" stroke-width="2" stroke-linecap="round" stroke-linejoin="round"/>
</svg>
