<svg width="15" height="20" viewBox="0 0 15 20" fill="none" xmlns="http://www.w3.org/2000/svg">
<path d="M7.5 20C7.26667 20 7.06667 19.9333 6.9 19.8C6.73333 19.6667 6.60833 19.4917 6.525 19.275C6.20833 18.3417 5.80833 17.4667 5.325 16.65C4.85833 15.8333 4.2 14.875 3.35 13.775C2.5 12.675 1.80833 11.625 1.275 10.625C0.758333 9.625 0.5 8.41667 0.5 7C0.5 5.05 1.175 3.4 2.525 2.05C3.89167 0.683333 5.55 0 7.5 0C9.45 0 11.1 0.683333 12.45 2.05C13.8167 3.4 14.5 5.05 14.5 7C14.5 8.51667 14.2083 9.78333 13.625 10.8C13.0583 11.8 12.4 12.7917 11.65 13.775C10.75 14.975 10.0667 15.975 9.6 16.775C9.15 17.5583 8.775 18.3917 8.475 19.275C8.39167 19.5083 8.25833 19.6917 8.075 19.825C7.90833 19.9417 7.71667 20 7.5 20ZM7.5 9.5C8.2 9.5 8.79167 9.25833 9.275 8.775C9.75833 8.29167 10 7.7 10 7C10 6.3 9.75833 5.70833 9.275 5.225C8.79167 4.74167 8.2 4.5 7.5 4.5C6.8 4.5 6.20833 4.74167 5.725 5.225C5.24167 5.70833 5 6.3 5 7C5 7.7 5.24167 8.29167 5.725 8.775C6.20833 9.25833 6.8 9.5 7.5 9.5Z" fill="#1D1B20"/>
</svg>
