<svg width="15" height="14" viewBox="0 0 15 14" fill="none" xmlns="http://www.w3.org/2000/svg">
<path fill-rule="evenodd" clip-rule="evenodd" d="M1.28467 0.0240479C1.69888 0.0240479 2.03467 0.359834 2.03467 0.774048V3.27405C2.03467 3.73818 2.21904 4.1833 2.54723 4.51148C2.69021 4.65447 2.85539 4.77015 3.03467 4.85519V0.774048C3.03467 0.359834 3.37045 0.0240479 3.78467 0.0240479C4.19888 0.0240479 4.53467 0.359834 4.53467 0.774048V4.85519C4.71542 4.76945 4.88034 4.65325 5.0221 4.51148C5.18461 4.34898 5.31351 4.15606 5.40146 3.94374C5.4894 3.73142 5.53467 3.50386 5.53467 3.27405V0.774048C5.53467 0.359834 5.87045 0.0240479 6.28467 0.0240479C6.69888 0.0240479 7.03467 0.359834 7.03467 0.774048V3.27405C7.03467 3.70084 6.9506 4.12346 6.78728 4.51777C6.62395 4.91208 6.38456 5.27035 6.08277 5.57214C5.78097 5.87394 5.4227 6.11333 5.02839 6.27666C4.94841 6.30979 4.86726 6.33965 4.78516 6.36622V13.0001C4.78516 13.5523 4.33744 14.0001 3.78516 14.0001C3.23287 14.0001 2.78516 13.5523 2.78516 13.0001V6.36654C2.29997 6.20971 1.85384 5.93942 1.48657 5.57214C0.877078 4.96265 0.534668 4.136 0.534668 3.27405V0.774048C0.534668 0.359834 0.870454 0.0240479 1.28467 0.0240479ZM11.3349 0.0240479C9.56308 0.0240479 8.39383 1.75089 8.39383 3.51291C8.39383 4.91717 9.13646 6.29907 10.3349 6.80236V13.0001C10.3349 13.5524 10.7826 14.0001 11.3349 14.0001C11.8872 14.0001 12.3349 13.5524 12.3349 13.0001V6.80238C13.5334 6.29911 14.276 4.91719 14.276 3.51291C14.276 1.75089 13.1068 0.0240479 11.3349 0.0240479Z" fill="black"/>
</svg>
